<svg width="1160" height="243" viewBox="0 0 1160 243" fill="none" xmlns="http://www.w3.org/2000/svg">
<rect x="2" y="2" width="58" height="58" rx="29" fill="#F2B100" stroke="#F2B100" stroke-width="4"/>
<rect y="90" width="62" height="62" fill="#FFDDD2"/>
<rect y="181" width="62" height="62" fill="#D42C59"/>
<rect x="91" width="62" height="62" fill="#D42C59"/>
<rect x="93" y="92" width="58" height="58" rx="29" fill="#F2B100" stroke="#F2B100" stroke-width="4"/>
<rect x="91" y="181" width="62" height="62" fill="#FFDDD2"/>
<rect x="182" width="62" height="62" fill="#FFDDD2"/>
<rect x="182" y="90" width="62" height="62" fill="#D42C59"/>
<rect x="184" y="183" width="58" height="58" rx="29" fill="#F2B100" stroke="#F2B100" stroke-width="4"/>
<rect x="275" y="2" width="58" height="58" rx="29" fill="#F2B100" stroke="#F2B100" stroke-width="4"/>
<rect x="273" y="90" width="62" height="62" fill="#FFDDD2"/>
<rect x="273" y="181" width="62" height="62" fill="#D42C59"/>
<rect x="364" width="62" height="62" fill="#D42C59"/>
<rect x="366" y="92" width="58" height="58" rx="29" fill="#F2B100" stroke="#F2B100" stroke-width="4"/>
<rect x="364" y="181" width="62" height="62" fill="#FFDDD2"/>
<rect x="455" width="62" height="62" fill="#FFDDD2"/>
<rect x="455" y="90" width="62" height="62" fill="#D42C59"/>
<rect x="457" y="183" width="58" height="58" rx="29" fill="#F2B100" stroke="#F2B100" stroke-width="4"/>
<rect x="548" y="2" width="58" height="58" rx="29" fill="#F2B100" stroke="#F2B100" stroke-width="4"/>
<rect x="546" y="90" width="62" height="62" fill="#FFDDD2"/>
<rect x="546" y="181" width="62" height="62" fill="#D42C59"/>
<rect x="638" width="62" height="62" fill="#D42C59"/>
<rect x="640" y="92" width="58" height="58" rx="29" fill="#F2B100" stroke="#F2B100" stroke-width="4"/>
<rect x="638" y="181" width="62" height="62" fill="#FFDDD2"/>
<rect x="730" width="62" height="62" fill="#FFDDD2"/>
<rect x="730" y="90" width="62" height="62" fill="#D42C59"/>
<rect x="732" y="183" width="58" height="58" rx="29" fill="#F2B100" stroke="#F2B100" stroke-width="4"/>
<rect x="824" y="2" width="58" height="58" rx="29" fill="#F2B100" stroke="#F2B100" stroke-width="4"/>
<rect x="822" y="90" width="62" height="62" fill="#FFDDD2"/>
<rect x="822" y="181" width="62" height="62" fill="#D42C59"/>
<rect x="914" width="62" height="62" fill="#D42C59"/>
<rect x="916" y="92" width="58" height="58" rx="29" fill="#F2B100" stroke="#F2B100" stroke-width="4"/>
<rect x="914" y="181" width="62" height="62" fill="#FFDDD2"/>
<rect x="1006" width="62" height="62" fill="#FFDDD2"/>
<rect x="1006" y="90" width="62" height="62" fill="#D42C59"/>
<rect x="1008" y="183" width="58" height="58" rx="29" fill="#F2B100" stroke="#F2B100" stroke-width="4"/>
<rect x="1100" y="2" width="58" height="58" rx="29" fill="#F2B100" stroke="#F2B100" stroke-width="4"/>
<rect x="1098" y="90" width="62" height="62" fill="#FFDDD2"/>
<rect x="1098" y="181" width="62" height="62" fill="#D42C59"/>
</svg>
